{"title":"Bojack Horseman S02E11 WEBRiP","uid":12522297,"size":128870262,"categoryP":"video","categoryS":"tv_shows","magnet":"?xt=urn:btih:2ced0492b95828533c001aa82777244a006d19d4&amp;dn=Bojack+Horseman+S02E11+WEBRiP&amp;tr=udp%3A%2F%2Ftracker.leechers-paradise.org%3A6969&amp;tr=udp%3A%2F%2Fzer0day.ch%3A1337&amp;tr=udp%3A%2F%2Fopen.demonii.com%3A1337&amp;tr=udp%3A%2F%2Ftracker.coppersurfer.tk%3A6969&amp;tr=udp%3A%2F%2Fexodus.desync.com%3A6969","seeders":0,"leechers":4,"uploader":"Joker__TPB","files":3,"time":1443901026,"description":"===================================================================================\r\nMeet the most beloved sitcom horse of the '90s - 20 years later. BoJack Horseman was the star of the hit TV show &quot;Horsin' Around|&quot; but today he's washed up| living\r\nin Hollywood| complaining about everything| and wearing colorful sweaters.\r\n===================================================================================\r\nscreens: \nhttp://extraimago.com/image/hVd\r\n===================================================================================\r\nmedia info:\r\n\r\nVideo\r\nID                                       : 1\r\nFormat                                   : AVC\r\nFormat/Info                              : Advanced Video Codec\r\nFormat profile                           :   \r\nFormat settings, CABAC                   : Yes\r\nFormat settings, ReFrames                : 5 frames\r\nCodec ID                                 : avc1\r\nCodec ID/Info                            : Advanced Video Coding\r\nDuration                                 : 25mn 33s\r\nBit rate                                 : 558 Kbps\r\nMaximum bit rate                         : 4 489 Kbps\r\nWidth                                    : 720 pixels\r\nHeight                                   : 404 pixels\r\nDisplay aspect ratio                     : 16:9\r\nFrame rate mode                          : Constant\r\nFrame rate                               : 23.976 fps\r\nColor space                              : YUV\r\nChroma subsampling                       : 4:2:0\r\nBit depth                                : 8 bits\r\nScan type                                : Progressive\r\nBits/(Pixel*Frame)                       : 0.080\r\nStream size                              : 102 MiB (83%)\r\nWriting library                          : x264 core 148 r2597 e86f3a1\r\nEncoding settings                        : cabac=1 / ref=5 / deblock=1:0:0 / analyse=0x3:0x113 / me=umh / subme=8 / psy=1 / psy_rd=1.00:0.00 / mixed_ref=1 / me_range=16 / chroma_me=1 / trellis=1 / 8x8dct=1 / cqm=0 / deadzone=21,11 / fast_pskip=1 / chroma_qp_offset=-2 / threads=6 / lookahead_threads=1 / sliced_threads=0 / nr=0 / decimate=1 / interlaced=0 / bluray_compat=0 / constrained_intra=0 / bframes=3 / b_pyramid=2 / b_adapt=2 / b_bias=0 / direct=3 / weightb=1 / open_gop=0 / weightp=2 / keyint=250 / keyint_min=25 / scenecut=40 / intra_refresh=0 / rc_lookahead=50 / rc=crf / mbtree=1 / crf=20.0 / qcomp=0.60 / qpmin=0 / qpmax=69 / qpstep=4 / ip_ratio=1.40 / aq=1:1.00\r\nEncoded date                             : UTC 2015-10-03 15:38:57\r\nTagged date                              : UTC 2015-10-03 15:38:59\r\nColor range                              : Limited\r\nMatrix coefficients                      : BT.709\r\n\r\nAudio\r\nID                                       : 2\r\nFormat                                   : AAC\r\nFormat/Info                              : Advanced Audio Codec\r\nFormat profile                           : LC\r\nCodec ID                                 : 40\r\nDuration                                 : 25mn 33s\r\nBit rate mode                            : Variable\r\nBit rate                                 : 110 Kbps\r\nMaximum bit rate                         : 149 Kbps\r\nChannel(s)                               : 2 channels\r\nChannel positions                        : Front: L R\r\nSampling rate                            : 48.0 KHz\r\nCompression mode                         : Lossy\r\nStream size                              : 20.1 MiB (16%)\r\nLanguage                                 : English\r\nEncoded date                             : UTC 2015-10-03 15:28:06\r\nTagged date                              : UTC 2015-10-03 15:38:59\r\n===================================================================================","torrent":{"xt":"urn:btih:2ced0492b95828533c001aa82777244a006d19d4","amp;dn":"Bojack+Horseman+S02E11+WEBRiP","amp;tr":["udp%3A%2F%2Ftracker.leechers-paradise.org%3A6969","udp%3A%2F%2Fzer0day.ch%3A1337","udp%3A%2F%2Fopen.demonii.com%3A1337","udp%3A%2F%2Ftracker.coppersurfer.tk%3A6969","udp%3A%2F%2Fexodus.desync.com%3A6969"],"infoHash":"2ced0492b95828533c001aa82777244a006d19d4","infoHashBuffer":{"type":"Buffer","data":[44,237,4,146,185,88,40,83,60,0,26,168,39,119,36,74,0,109,25,212]},"announce":[],"urlList":[]}}